# xmcd
#
# Track frame offsets:
#	150
#	15471
#	32294
#	49581
#	63738
#	82521
#	96864
#	111904
#	128961
#	142494
#	159550
#	176824
#	188470
#	201406
#	217665
#
# Disc length: 3094 seconds
#
# Revision: 1
# Processed by: cddbd v1.5.2PL0 Copyright (c) Steve Scherf et al.
# Submitted via: audiograbber 1.83.01
#
DISCID=c80c140f
DTITLE=Sampler - Country CD2
DYEAR=2009
DGENRE=Country
TTITLE0=D. Von Tress - Achy Breaky Heart
TTITLE1=M. Brown - R. Young - S. Webb - I'm From The Country
TTITLE2=C. Black S. Wariner - Nothin' But The Taillights
TTITLE3=D. Malloy E. Hill M.D. Sanders - What If I Do
TTITLE4=J. Hayes - Whos Cheatin' Who
TTITLE5=J. Ericsson Oban P. Reiniz - Cotton Eye Joe
TTITLE6=R. Smith - Third Rate Romance
TTITLE7=C. Wiseman D. Womack - She's Got It All
TTITLE8=M. Selby T. Sillers - Theres Your Trouble
TTITLE9=R. Giles S. Longacre - One Of Those Nights Tonight
TTITLE10=A. Petraglia K. Richey - You'll Never Know
TTITLE11=S. Austin W. Rambeaux - Put Your Heart Into It
TTITLE12=J. McElroy N. McElroy - She Drew A Broken Heart
TTITLE13=R.J. Lange S. Twain - Don't Be Stupid (You Know I Love You)
TTITLE14=L.J. Shafer S.D. Shafer - All My Exs Live In Texas
EXTD=caramba music CR 032
EXTT0=
EXTT1=
EXTT2=
EXTT3=
EXTT4=
EXTT5=
EXTT6=
EXTT7=
EXTT8=
EXTT9=
EXTT10=
EXTT11=
EXTT12=
EXTT13=
EXTT14=
PLAYORDER=
